<svg version="1.1" xmlns="http://www.w3.org/2000/svg" viewBox="0 0 64.41979214301364 108.37863607649592" width="64.41979214301364" height="108.37863607649592">
  <!-- svg-source:excalidraw -->
  
  <defs>
    <style class="style-fonts">
      
    </style>
    
  </defs>
  <rect x="0" y="0" width="64.41979214301364" height="108.37863607649592" fill="#ffffff"></rect><g stroke-linecap="round" transform="translate(26.770351420609813 27.281175785521782) rotate(0 11.481045426088599 12.598108921620508)"><path d="M10.26 -0.16 C12.61 -0.64, 16.15 0.27, 18.16 1.77 C20.16 3.26, 21.71 6.17, 22.3 8.81 C22.88 11.45, 22.68 15.05, 21.67 17.62 C20.65 20.18, 18.4 23.02, 16.21 24.2 C14.02 25.37, 10.88 25.36, 8.54 24.65 C6.19 23.95, 3.48 22.06, 2.13 19.96 C0.79 17.86, 0.33 14.69, 0.47 12.04 C0.62 9.39, 1.28 6.15, 2.98 4.07 C4.68 1.99, 9.38 0.2, 10.69 -0.42 C11.99 -1.05, 10.87 -0.04, 10.82 0.31 M13.41 0.75 C15.64 0.98, 18.54 2.35, 20.11 4.21 C21.68 6.07, 22.64 9.3, 22.81 11.91 C22.98 14.52, 22.65 17.59, 21.15 19.87 C19.64 22.16, 16.31 24.97, 13.78 25.62 C11.24 26.28, 8.18 25.29, 5.93 23.8 C3.67 22.32, 1.2 19.13, 0.26 16.69 C-0.69 14.25, -0.69 11.64, 0.25 9.19 C1.19 6.74, 3.81 3.53, 5.9 1.99 C7.99 0.45, 11.52 0.31, 12.79 -0.06 C14.05 -0.43, 13.51 -0.4, 13.48 -0.24" stroke="#000000" stroke-width="2" fill="none"></path></g><g stroke-linecap="round"><g transform="translate(34.902961412652985 52.67118809432168) rotate(0 -0.646947355298721 14.711879171258772)"><path d="M-0.23 -0.02 C-0.49 4.94, -1.1 24.43, -1.32 29.38 M0.66 -0.51 C0.29 4.57, -1.32 25.18, -1.77 30.05" stroke="#000000" stroke-width="2" fill="none"></path></g></g><mask></mask><g stroke-linecap="round"><g transform="translate(33.40486116479519 81.73801223162491) rotate(0 4.0138912729842104 8.190538760060292)"><path d="M-0.03 -0.05 C1.31 2.73, 6.51 13.94, 7.78 16.64 M-0.7 -0.54 C0.56 2.07, 5.66 12.95, 7.23 15.81" stroke="#000000" stroke-width="2" fill="none"></path></g></g><mask></mask><g stroke-linecap="round"><g transform="translate(33.00554028186161 81.13558039951727) rotate(0 -6.467206342749705 7.4077876754106455)"><path d="M-0.24 0.26 C-2.47 2.69, -11.2 12.19, -13.37 14.57 M0.63 -0.08 C-1.42 2.43, -10.23 12.64, -12.37 15.14" stroke="#000000" stroke-width="2" fill="none"></path></g></g><mask></mask><g stroke-linecap="round"><g transform="translate(22.903525538738222 56.546974327554835) rotate(0 5.657085461791553 5.429913108022504)"><path d="M-0.44 -0.25 C1.42 1.46, 9 8.74, 10.94 10.54 M0.34 0.81 C2.39 2.57, 10.24 9.38, 11.98 11.07" stroke="#000000" stroke-width="2" fill="none"></path></g></g><mask></mask><g stroke-linecap="round"><g transform="translate(33.36796536098291 66.67909801808833) rotate(0 8.152277456178354 -4.597770899107729)"><path d="M-0.38 -0.32 C2.39 -1.86, 13.34 -8.01, 16.16 -9.51 M0.43 0.7 C3.15 -0.75, 13 -7.38, 15.66 -8.97" stroke="#000000" stroke-width="2" fill="none"></path></g></g><mask></mask><g stroke-linecap="round"><g transform="translate(29.237027556529256 29.717120972605244) rotate(0 2.422743454629199 -3.5645706986265395)" fill-rule="evenodd"><path d="M0.51 1.35 C2.03 -0.35, 7.32 -9.98, 10.58 -10.34 C13.84 -10.7, 18.37 -2.61, 20.06 -0.81 C21.75 0.99, 21 -0.44, 20.72 0.47 C20.44 1.37, 24.41 4.4, 18.36 4.61 C12.32 4.81, -9.69 2.75, -15.54 1.68 C-21.39 0.61, -19.26 -1.72, -16.73 -1.82 C-14.21 -1.91, -3.39 0.79, -0.39 1.11" stroke="none" stroke-width="0" fill="#4c6ef5" fill-rule="evenodd"></path><path d="M-0.14 -0.32 C1.72 -2, 7.41 -10.45, 10.8 -10.41 C14.19 -10.37, 18.81 -2.19, 20.21 -0.08 C21.61 2.02, 19.46 1.71, 19.21 2.2 C18.96 2.68, 24.44 2.96, 18.73 2.84 C13.01 2.72, -9.31 2.08, -15.1 1.47 C-20.9 0.87, -18.63 -0.45, -16.05 -0.79 C-13.46 -1.12, -2.39 -0.7, 0.42 -0.54 M0.79 0.71 C2.64 -0.86, 7.36 -9.76, 10.52 -9.8 C13.68 -9.83, 18.3 -1.36, 19.77 0.49 C21.23 2.34, 19.56 0.89, 19.31 1.28 C19.06 1.68, 24.13 2.91, 18.25 2.87 C12.37 2.83, -10.28 1.77, -15.99 1.04 C-21.7 0.32, -18.68 -1.14, -16.02 -1.46 C-13.35 -1.78, -2.74 -1.08, -0.03 -0.88" stroke="#000000" stroke-width="1" fill="none"></path></g></g><mask></mask><g stroke-linecap="round"><g transform="translate(40.15041783473248 20.66927202599163) rotate(0 1.754129606918923 -5.318525598015441)"><path d="M0 0 C-0.04 -0.88, 0.9 -4.39, -0.26 -5.27 C-1.43 -6.15, -5.28 -4.38, -7 -5.27 C-8.72 -6.17, -12.94 -11.11, -10.58 -10.64 C-8.21 -10.16, 3.1 -3.16, 7.21 -2.42 C11.32 -1.68, 15.17 -5.79, 14.08 -6.18 C13 -6.58, 2.94 -5.02, 0.71 -4.78 M0 0 C-0.04 -0.88, 0.9 -4.39, -0.26 -5.27 C-1.43 -6.15, -5.28 -4.38, -7 -5.27 C-8.72 -6.17, -12.94 -11.11, -10.58 -10.64 C-8.21 -10.16, 3.1 -3.16, 7.21 -2.42 C11.32 -1.68, 15.17 -5.79, 14.08 -6.18 C13 -6.58, 2.94 -5.02, 0.71 -4.78" stroke="#000000" stroke-width="1" fill="none"></path></g></g><mask></mask></svg>